<svg enable-background="new 0 0 10.1 19.7" viewBox="0 0 10.1 19.7" xmlns="http://www.w3.org/2000/svg"><path d="m9.2 14.5-1.5-2.4c.3-1 .5-2 .5-3v-.4c0-1.7-.7-3.3-2-4.4-.4-.3-.6-.7-.8-1.2h.3c.1-.1.2-.2.2-.4h-.6v-.9h.3c.1-.1 0-.2 0-.3h-.1c-.2-.3-.3-.7-.3-1.1 0-.3 0-.3-.1-.4h-.1c-.1.1-.1.3-.1.4l-.3 1.1h-.1v.3h.3v.6h-.6c0 .2.1.3.2.4h.3c-.1.5-.5.8-.8 1.2-1.3 1.1-2 2.7-2 4.4v.4c0 1 .2 2 .5 3l-1.5 2.4-.9 5.5h1l.9-3.3 1.6-1.3h.1c0 .1.1.1.2.1v.4c0 .1.1.3.8.4v3.7h.8v-3.7c.8-.1.9-.3.9-.4s0-.3.1-.4c.1 0 .1 0 .1-.1h.1l1.5 1.3 1 3.3h1z" fill="#b4fff4"/></svg>